<svg xmlns="http://www.w3.org/2000/svg" version="1.1" xmlns:xlink="http://www.w3.org/1999/xlink" xmlns:svgjs="http://svgjs.dev/svgjs" width="128" height="128" viewBox="0 0 128 128"><g transform="matrix(0.8046875,0,0,0.8046875,12.333870967741937,40.294688585069444)"><svg viewBox="0 0 155 72" data-background-color="#010536" preserveAspectRatio="xMidYMid meet" height="59" width="128" xmlns="http://www.w3.org/2000/svg" xmlns:xlink="http://www.w3.org/1999/xlink"><g id="tight-bounds" transform="matrix(1,0,0,1,0.25,-0.04999999999999716)"><svg viewBox="0 0 154.5 72.1" height="72.1" width="154.5"><rect width="154.5" height="72.1" fill="#000000" mask="url(&quot;#6d2edfe4-23ee-47bb-87a1-436729afd89f&quot;)" data-fill-palette-color="primary"></rect><g><svg viewBox="0 0 154.5 72.1" height="72.1" width="154.5"><g><svg viewBox="0 0 154.5 72.1" height="72.1" width="154.5"><g id="textblocktransform"><svg viewBox="0 0 154.5 72.1" height="72.1" width="154.5" id="textblock"><g><svg viewBox="0 0 154.5 72.1" height="72.1" width="154.5"><g transform="matrix(1,0,0,1,0,0)"><svg width="154.5" viewBox="0 -50 93.75 43.75" height="72.1" data-palette-color="url(#47feb29c-6e27-4225-8a14-edd828479afe)"></svg></g></svg></g></svg></g></svg></g><g></g></svg></g><defs><linearGradient x1="0" x2="1" y1="0.548" y2="0.55" id="47feb29c-6e27-4225-8a14-edd828479afe"><stop stop-color="#ff6cab" offset="0"></stop><stop stop-color="#7366ff" offset="1"></stop></linearGradient></defs><mask id="6d2edfe4-23ee-47bb-87a1-436729afd89f"><g id="SvgjsG1017"><svg viewBox="0 0 154.5 72.1" height="72.1" width="154.5"><g><svg viewBox="0 0 154.5 72.1" height="72.1" width="154.5"><g><svg viewBox="0 0 154.5 72.1" height="72.1" width="154.5"><g id="SvgjsG1016"><svg viewBox="0 0 154.5 72.1" height="72.1" width="154.5" id="SvgjsSvg1015"><g><svg viewBox="0 0 154.5 72.1" height="72.1" width="154.5"><g transform="matrix(1,0,0,1,0,0)"><svg width="154.5" viewBox="0 -50 93.75 43.75" height="72.1" data-palette-color="url(#47feb29c-6e27-4225-8a14-edd828479afe)"><path d="M12.5-6.25L0-6.25 0-50 12.5-50 12.5-43.75 18.75-43.75 18.75-37.5 25-37.5 25-31.25 31.25-31.25 31.25-50 43.75-50 43.75-6.25 31.25-6.25 31.25-18.75 25-18.75 25-25 18.75-25 18.75-31.25 12.5-31.25 12.5-6.25ZM62.5-6.25L50-6.25 50-50 87.5-50 87.5-43.75 93.75-43.75 93.75-25 87.5-25 87.5-18.75 62.5-18.75 62.5-6.25ZM62.5-43.75L62.5-25 81.25-25 81.25-43.75 62.5-43.75Z" opacity="1" transform="matrix(1,0,0,1,0,0)" fill="white" class="undefined-text-0" id="SvgjsPath1014"></path></svg></g></svg></g></svg></g></svg></g><g></g></svg></g><defs><mask></mask></defs></svg></g></mask></svg><rect width="154.5" height="72.1" fill="none" stroke="none" visibility="hidden"></rect></g></svg></g></svg>